<?xml version="1.0" encoding="UTF-8" standalone="no"?>
<svg width="26px" height="26px" viewBox="0 0 26 26" version="1.1" xmlns="http://www.w3.org/2000/svg" xmlns:xlink="http://www.w3.org/1999/xlink" xmlns:sketch="http://www.bohemiancoding.com/sketch/ns">
    <!-- Generator: Sketch 3.3.2 (12043) - http://www.bohemiancoding.com/sketch -->
    <title>behance</title>
    <desc>Created with Sketch.</desc>
    <defs></defs>
    <g id="Simple" stroke="none" stroke-width="1" fill="none" fill-rule="evenodd" sketch:type="MSPage">
        <g id="Desktop-HD" sketch:type="MSArtboardGroup" transform="translate(-1294.000000, -49.000000)">
            <g id="First-Section" sketch:type="MSLayerGroup" transform="translate(-21.000000, 0.000000)">
                <g id="Nav" transform="translate(84.988920, 24.000000)" sketch:type="MSShapeGroup">
                    <g id="Social-Media" transform="translate(1165.562327, 24.000000)">
                        <g id="behance" transform="translate(64.375812, 0.813372)">
                            <rect id="Rectangle" x="1.01177285" y="1" width="24.6601989" height="24.3732561"></rect>
                            <ellipse id="Oval" stroke="#000000" stroke-width="2" cx="13.3418723" cy="13.1866281" rx="12.3300995" ry="12.1866281"></ellipse>
                            <path d="M13.1378801,10.115366 C13.3593931,10.4377416 13.4708462,10.8216947 13.4708462,11.2701229 C13.4708462,11.7315909 13.3593931,12.1032285 13.1350938,12.3835867 C13.0083159,12.5407901 12.8237217,12.6849536 12.5792215,12.8146283 C12.9504996,12.955894 13.2298289,13.178297 13.4199957,13.4825617 C13.6087694,13.7861019 13.7028079,14.1562906 13.7028079,14.5909544 C13.7028079,15.0386582 13.5955343,15.4414466 13.3788974,15.7964221 C13.2416708,16.031865 13.0696151,16.2310859 12.8641234,16.3919115 C12.6321617,16.5766436 12.3591017,16.7026961 12.0428535,16.7715179 C11.7266054,16.8403397 11.3845838,16.8736639 11.0146989,16.8736639 L7.73728165,16.8736639 L7.73728165,9.30906459 L11.2522332,9.30906459 C12.1396784,9.32355339 12.7672986,9.59159607 13.1378801,10.115366 L13.1378801,10.115366 Z M9.18756488,10.6231982 L9.18756488,12.2923073 L10.956186,12.2923073 C11.2710409,12.2923073 11.5280796,12.229281 11.7259088,12.1039529 C11.9216483,11.9793493 12.0212595,11.7576708 12.0212595,11.4403662 C12.0212595,11.087564 11.8909987,10.8550189 11.6304771,10.7412819 C11.4054812,10.6630424 11.1191861,10.6231982 10.7708952,10.6231982 L9.18756488,10.6231982 L9.18756488,10.6231982 Z M9.18756488,13.5434146 L9.18756488,15.5602547 L10.9533997,15.5602547 C11.2689512,15.5602547 11.5148446,15.5160639 11.6903832,15.4276823 C12.0094176,15.26251 12.1682383,14.9481032 12.1682383,14.4837373 C12.1682383,14.0889177 12.0149903,13.8194261 11.705708,13.6716404 C11.5322591,13.5897788 11.2898487,13.5463124 10.9784766,13.5434146 L9.18756488,13.5434146 L9.18756488,13.5434146 Z M18.1003286,11.394002 C18.4764827,11.568592 18.785765,11.8446035 19.0288721,12.2213122 C19.2510817,12.55383 19.3938809,12.9392319 19.458663,13.3775179 C19.4962784,13.634694 19.5122998,14.0048827 19.505334,14.488084 L15.5870616,14.488084 C15.6100488,15.0495247 15.7960361,15.4428955 16.1498996,15.6681963 C16.3651434,15.8087376 16.6235752,15.8782838 16.9258917,15.8782838 C17.2449262,15.8782838 17.5061443,15.7935243 17.7060633,15.6225565 C17.8161232,15.5298283 17.9122515,15.4016024 17.9958413,15.2371546 L19.4314963,15.2371546 C19.3938809,15.568948 19.2197355,15.9058125 18.9104532,16.2491969 C18.4291152,16.7925267 17.7541275,17.0641915 16.8875797,17.0641915 C16.1714937,17.0641915 15.5389974,16.8352686 14.9935739,16.3759738 C14.4446675,15.9174035 14.172304,15.1705062 14.172304,14.1374552 C14.172304,13.1674304 14.418894,12.4248797 14.9120738,11.9069053 C15.4066469,11.3911043 16.0475021,11.1317549 16.8353361,11.1317549 C17.303439,11.1317549 17.7255676,11.2186876 18.1003286,11.394002 L18.1003286,11.394002 Z M15.9966517,12.6574249 C15.7981258,12.8704101 15.6727411,13.1594616 15.6218907,13.5231303 L18.0452986,13.5231303 C18.0202217,13.1348306 17.8941404,12.8407081 17.6712342,12.6393139 C17.4455417,12.4386441 17.1676056,12.337947 16.8360327,12.337947 C16.4758999,12.337947 16.1951775,12.4444396 15.9966517,12.6574249 L15.9966517,12.6574249 Z M15.258275,10.6036383 L18.3747818,10.6036383 L18.3747818,9.66259116 L15.258275,9.66259116 L15.258275,10.6036383 Z" id="Shape" fill="#000000"></path>
                        </g>
                    </g>
                </g>
            </g>
        </g>
    </g>
</svg>