<?xml version="1.0" encoding="UTF-8" standalone="no"?>
<svg width="25px" height="26px" viewBox="0 0 25 26" version="1.1" xmlns="http://www.w3.org/2000/svg" xmlns:xlink="http://www.w3.org/1999/xlink" xmlns:sketch="http://www.bohemiancoding.com/sketch/ns">
    <!-- Generator: Sketch 3.3.2 (12043) - http://www.bohemiancoding.com/sketch -->
    <title>facebook</title>
    <desc>Created with Sketch.</desc>
    <defs></defs>
    <g id="Simple" stroke="none" stroke-width="1" fill="none" fill-rule="evenodd" sketch:type="MSPage">
        <g id="Desktop-HD" sketch:type="MSArtboardGroup" transform="translate(-1230.000000, -49.000000)">
            <g id="First-Section" sketch:type="MSLayerGroup" transform="translate(-21.000000, 0.000000)">
                <g id="Nav" transform="translate(84.988920, 24.000000)" sketch:type="MSShapeGroup">
                    <g id="Social-Media" transform="translate(1165.562327, 24.000000)">
                        <g id="facebook" transform="translate(0.634122, 1.813372)">
                            <rect id="Rectangle" x="0" y="0" width="24.6601989" height="24.3732561"></rect>
                            <ellipse id="Oval" stroke="#000000" stroke-width="2" cx="12.3300995" cy="12.1866281" rx="12.3300995" ry="12.1866281"></ellipse>
                            <path d="M13.0669382,19.3878174 L10.3333193,19.3878174 L10.3333193,13.0167304 L8.96734506,13.0167304 L8.96734506,10.8214676 L10.3333193,10.8214676 L10.3333193,9.50350574 C10.3333193,7.71271807 11.1042115,6.64725167 13.2957837,6.64725167 L15.1198667,6.64725167 L15.1198667,8.84331864 L13.9798149,8.84331864 C13.1266552,8.84331864 13.070279,9.15009255 13.070279,9.72262996 L13.0665206,10.8214676 L15.1323948,10.8214676 L14.8906036,13.0167304 L13.0665206,13.0167304 L13.0665206,19.3878174 L13.0669382,19.3878174 Z" id="Shape" fill="#000000"></path>
                        </g>
                    </g>
                </g>
            </g>
        </g>
    </g>
</svg>