<?xml version="1.0" encoding="UTF-8" standalone="no"?>
<svg width="25px" height="26px" viewBox="0 0 25 26" version="1.1" xmlns="http://www.w3.org/2000/svg" xmlns:xlink="http://www.w3.org/1999/xlink" xmlns:sketch="http://www.bohemiancoding.com/sketch/ns">
    <!-- Generator: Sketch 3.3.2 (12043) - http://www.bohemiancoding.com/sketch -->
    <title>instagram</title>
    <desc>Created with Sketch.</desc>
    <defs></defs>
    <g id="Simple" stroke="none" stroke-width="1" fill="none" fill-rule="evenodd" sketch:type="MSPage">
        <g id="Desktop-HD" sketch:type="MSArtboardGroup" transform="translate(-1331.000000, -49.000000)">
            <g id="First-Section" sketch:type="MSLayerGroup" transform="translate(-21.000000, 0.000000)">
                <g id="Nav" transform="translate(84.988920, 24.000000)" sketch:type="MSShapeGroup">
                    <g id="Social-Media" transform="translate(1165.562327, 24.000000)">
                        <g id="instagram" transform="translate(101.811408, 1.813372)">
                            <rect id="Rectangle" x="0" y="0" width="24.6601989" height="24.3732561"></rect>
                            <ellipse id="Oval" stroke="#000000" stroke-width="2" cx="12.3300995" cy="12.1866281" rx="12.3300995" ry="12.1866281"></ellipse>
                            <path d="M15.7683814,6.64725167 L8.89181753,6.64725167 C7.69761265,6.64725167 6.72550879,7.60739288 6.72550879,8.78835353 L6.72550879,15.5849026 C6.72550879,16.7658633 7.69761265,17.7260045 8.89181753,17.7260045 L15.7683814,17.7260045 C16.9625863,17.7260045 17.9346901,16.7658633 17.9346901,15.5849026 L17.9346901,8.78835353 C17.9346901,7.60739288 16.9625863,6.64725167 15.7683814,6.64725167 L15.7683814,6.64725167 Z M16.3898688,7.92461728 L16.6376729,7.92331451 L16.6376729,9.80125691 L14.7435532,9.80711937 L14.7369627,7.92917697 L16.3898688,7.92461728 L16.3898688,7.92461728 Z M10.7305767,11.0493102 C11.0891018,10.5581661 11.671705,10.236382 12.3300995,10.236382 C12.9884939,10.236382 13.5710971,10.5581661 13.9296222,11.0493102 C14.1635862,11.3697915 14.3033055,11.7619252 14.3033055,12.1866281 C14.3033055,13.261413 13.4181967,14.1362228 12.3300995,14.1362228 C11.2426612,14.1362228 10.3575524,13.261413 10.3575524,12.1866281 C10.3575524,11.7619252 10.4972718,11.3697915 10.7305767,11.0493102 L10.7305767,11.0493102 Z M16.8426385,15.5849026 C16.8426385,16.1704975 16.3608704,16.6466598 15.7683814,16.6466598 L8.89181753,16.6466598 C8.29932846,16.6466598 7.81756038,16.1704975 7.81756038,15.5849026 L7.81756038,11.0493102 L9.49155618,11.0493102 C9.34656442,11.401058 9.26550084,11.7847236 9.26550084,12.1866281 C9.26550084,13.8567787 10.6402864,15.2162188 12.3300995,15.2162188 C14.0205716,15.2162188 15.3953571,13.8567787 15.3953571,12.1866281 C15.3953571,11.7847236 15.3129754,11.401058 15.1693018,11.0493102 L16.8426385,11.0493102 L16.8426385,15.5849026 L16.8426385,15.5849026 Z" id="Shape" fill="#000000"></path>
                        </g>
                    </g>
                </g>
            </g>
        </g>
    </g>
</svg>