<?xml version="1.0" encoding="UTF-8" standalone="no"?>
<svg width="26px" height="26px" viewBox="0 0 26 26" version="1.1" xmlns="http://www.w3.org/2000/svg" xmlns:xlink="http://www.w3.org/1999/xlink" xmlns:sketch="http://www.bohemiancoding.com/sketch/ns">
    <!-- Generator: Sketch 3.3.2 (12043) - http://www.bohemiancoding.com/sketch -->
    <title>twitter</title>
    <desc>Created with Sketch.</desc>
    <defs></defs>
    <g id="Simple" stroke="none" stroke-width="1" fill="none" fill-rule="evenodd" sketch:type="MSPage">
        <g id="Desktop-HD" sketch:type="MSArtboardGroup" transform="translate(-1262.000000, -49.000000)">
            <g id="First-Section" sketch:type="MSLayerGroup" transform="translate(-21.000000, 0.000000)">
                <g id="Nav" transform="translate(84.988920, 24.000000)" sketch:type="MSShapeGroup">
                    <g id="Social-Media" transform="translate(1165.562327, 24.000000)">
                        <g id="twitter" transform="translate(33.010854, 1.813372)">
                            <rect id="Rectangle" x="0" y="0" width="24.6601989" height="24.3732561"></rect>
                            <ellipse id="Oval" stroke="#000000" stroke-width="2" cx="12.3300995" cy="12.1866281" rx="12.3300995" ry="12.1866281"></ellipse>
                            <path d="M17.1086569,9.33148481 C17.6074349,9.02038997 17.9901537,8.52710303 18.1697691,7.93947945 C17.7027692,8.22825035 17.1867205,8.43708716 16.6361304,8.55014709 C16.1967637,8.06046077 15.5688008,7.75512695 14.8738276,7.75512695 C13.5405292,7.75512695 12.4600738,8.8821256 12.4600738,10.2719706 C12.4600738,10.4692854 12.4801079,10.6615593 12.5215576,10.8451916 C10.5153924,10.7400531 8.73650974,9.73907665 7.54483106,8.21528806 C7.33689177,8.58831381 7.21806931,9.02038997 7.21806931,9.48127121 C7.21806931,10.3540651 7.64431032,11.1246009 8.2923072,11.5768406 C7.89646263,11.5638783 7.52410621,11.4493781 7.19803529,11.2621451 L7.19803529,11.2931106 C7.19803529,12.5130056 8.02979247,13.530545 9.13580845,13.7609856 C8.93270496,13.820036 8.71992986,13.8495612 8.49886483,13.8495612 C8.34342848,13.8495612 8.19144628,13.8344385 8.04499069,13.8049133 C8.35171842,14.8044495 9.24357765,15.533218 10.3005448,15.5526614 C9.47362345,16.2281404 8.43254532,16.6299713 7.30165953,16.6299713 C7.10684597,16.6299713 6.9141049,16.6191694 6.72550879,16.5954052 C7.79422005,17.309051 9.06327149,17.7260045 10.4269664,17.7260045 C14.8689919,17.7260045 17.2965622,13.8906084 17.2965622,10.5643421 C17.2965622,10.4548828 17.2951806,10.3461437 17.2903448,10.2388447 C17.7621804,9.88382217 18.1725324,9.44022398 18.4951492,8.935415 C18.0619999,9.13561028 17.5963817,9.27099415 17.1086569,9.33148481 Z" id="Shape" fill="#000000"></path>
                        </g>
                    </g>
                </g>
            </g>
        </g>
    </g>
</svg>